<svg width="32" height="32" viewBox="0 0 32 32" fill="none" xmlns="http://www.w3.org/2000/svg">
<path d="M20.75 0.166687H11.25C5.13834 0.166687 0.166672 5.13994 0.166672 11.25V20.75C0.166672 26.8601 5.13834 31.8334 11.25 31.8334H20.75C26.8617 31.8334 31.8333 26.8601 31.8333 20.75V11.25C31.8333 5.13994 26.8617 0.166687 20.75 0.166687ZM28.6667 20.75C28.6667 25.1153 25.1153 28.6667 20.75 28.6667H11.25C6.88475 28.6667 3.33334 25.1153 3.33334 20.75V11.25C3.33334 6.88477 6.88475 3.33335 11.25 3.33335H20.75C25.1153 3.33335 28.6667 6.88477 28.6667 11.25V20.75ZM23.9167 16C23.9167 16.8756 23.2073 17.5834 22.3333 17.5834H17.5833V22.3334C17.5833 23.2089 16.874 23.9167 16 23.9167C15.126 23.9167 14.4167 23.2089 14.4167 22.3334V17.5834H9.66667C8.79267 17.5834 8.08334 16.8756 8.08334 16C8.08334 15.1244 8.79267 14.4167 9.66667 14.4167H14.4167V9.66669C14.4167 8.7911 15.126 8.08335 16 8.08335C16.874 8.08335 17.5833 8.7911 17.5833 9.66669V14.4167H22.3333C23.2073 14.4167 23.9167 15.1244 23.9167 16Z" fill="black"/>
</svg>
