<svg width="30" height="30" viewBox="0 0 30 30" fill="none" xmlns="http://www.w3.org/2000/svg">
<path d="M27.2025 7.68L19.7025 1.6492C16.9785 -0.541677 13.023 -0.541677 10.2975 1.6492L2.79751 7.68C1.02001 9.11008 0 11.2396 0 13.5205V22.512C0 26.6447 3.3645 30.006 7.5 30.006H12V22.5105C12 20.8584 13.3455 19.5168 15 19.5168C16.6545 19.5168 18 20.8599 18 22.5105V30.006H22.5C26.6355 30.006 30 26.6447 30 22.512V13.5205C30 11.2396 28.98 9.11008 27.2025 7.68ZM27 22.512C27 24.9895 24.981 27.0048 22.5 27.0048H21V22.5105C21 19.2047 18.309 16.5156 15 16.5156C11.691 16.5156 9 19.2047 9 22.5105V27.0048H7.5C5.019 27.0048 3 24.9895 3 22.512V13.5205C3 12.1534 3.61199 10.8764 4.67699 10.0196L12.177 3.98858C13.8135 2.67405 16.188 2.67405 17.823 3.98858L25.323 10.0196C26.3895 10.8764 27.0015 12.1534 27.0015 13.5205V22.512H27Z" fill="black"/>
</svg>
