<svg width="30" height="28" viewBox="0 0 30 28" fill="none" xmlns="http://www.w3.org/2000/svg">
<path d="M15 15.5C19.1355 15.5 22.5 12.1355 22.5 8C22.5 3.8645 19.1355 0.5 15 0.5C10.8645 0.5 7.5 3.8645 7.5 8C7.5 12.1355 10.8645 15.5 15 15.5ZM15 3.5C17.481 3.5 19.5 5.519 19.5 8C19.5 10.481 17.481 12.5 15 12.5C12.519 12.5 10.5 10.481 10.5 8C10.5 5.519 12.519 3.5 15 3.5ZM25.5 22.1V23.399C25.5 24.7325 25.0125 26.0105 24.1275 26.999C23.832 27.3305 23.421 27.4985 23.01 27.4985C22.653 27.4985 22.2945 27.3725 22.0095 27.116C21.393 26.5625 21.3405 25.6145 21.8925 24.998C22.2855 24.56 22.5 23.9915 22.5 23.399V22.1C22.5 20.399 21.375 18.929 19.7655 18.524C19.569 18.4775 19.3665 18.4986 19.2045 18.5916C16.5825 20.0511 13.401 20.0405 10.8135 18.602C10.635 18.5 10.4295 18.4745 10.239 18.524C8.62498 18.929 7.5 20.399 7.5 22.1V23.399C7.5 23.993 7.71604 24.56 8.10754 24.998C8.65954 25.6145 8.60704 26.5625 7.99054 27.116C7.37554 27.668 6.42897 27.617 5.87247 26.999C4.98747 26.0105 4.5 24.731 4.5 23.399V22.1C4.5 19.0205 6.55796 16.3535 9.50546 15.6155C10.4415 15.374 11.457 15.5135 12.2865 15.9905C13.95 16.913 16.0305 16.9234 17.73 15.9799C18.5445 15.5119 19.5615 15.383 20.499 15.6155C23.442 16.3535 25.5 19.022 25.5 22.1ZM22.587 1.75702C22.8615 0.975519 23.7225 0.567506 24.4995 0.843506C26.8935 1.68801 28.5 3.962 28.5 6.5C28.5 8.2055 27.771 9.83594 26.5005 10.9714C26.2155 11.2279 25.8555 11.3539 25.5 11.3539C25.089 11.3539 24.678 11.1859 24.3825 10.8544C23.8305 10.2379 23.883 9.28845 24.4995 8.73645C25.1355 8.16795 25.5 7.352 25.5 6.5C25.5 5.231 24.696 4.09406 23.5005 3.66956C22.719 3.39506 22.3095 2.53702 22.587 1.75702ZM30 18.251V19.334C30 20.1635 29.3295 20.834 28.5 20.834C27.6705 20.834 27 20.1635 27 19.334V18.251C27 16.949 26.1405 15.8225 24.909 15.5135C24.105 15.311 23.6175 14.4965 23.8185 13.694C24.021 12.8885 24.843 12.3995 25.638 12.6035C28.2075 13.2485 30 15.5705 30 18.251ZM3.49951 11.639C2.22901 10.5005 1.5 8.86992 1.5 7.16742C1.5 4.63092 3.10799 2.35543 5.50049 1.51093C6.27749 1.23493 7.13852 1.64294 7.41302 2.42444C7.69052 3.20594 7.28101 4.06248 6.49951 4.33698C5.30401 4.75998 4.5 5.89842 4.5 7.16742C4.5 8.01942 4.86449 8.83405 5.50049 9.40405C6.11699 9.95755 6.16949 10.9055 5.61749 11.522C5.32049 11.8535 4.91104 12.0215 4.49854 12.0215C4.14304 12.0215 3.78451 11.8955 3.49951 11.639ZM5.09253 16.1795C3.86103 16.4885 3 17.6149 3 18.9169V20C3 20.8295 2.328 21.5 1.5 21.5C0.672 21.5 0 20.8295 0 20V18.9169C0 16.2379 1.79247 13.9144 4.36047 13.2694C5.15997 13.0699 5.97899 13.5545 6.17999 14.3585C6.38249 15.1625 5.89503 15.977 5.09253 16.1795Z" fill="black"/>
</svg>
