<svg width="30" height="30" viewBox="0 0 30 30" fill="none" xmlns="http://www.w3.org/2000/svg">
<path d="M29.5603 27.4395L22.7518 20.631C24.4663 18.459 25.4998 15.7245 25.4998 12.75C25.4998 5.7195 19.7803 0 12.7498 0C5.71932 0 -0.000183105 5.7195 -0.000183105 12.75C-0.000183105 19.7805 5.71932 25.5 12.7498 25.5C15.7258 25.5 18.4588 24.468 20.6308 22.752L27.4393 29.5605C27.7318 29.853 28.1158 30 28.4998 30C28.8838 30 29.2678 29.853 29.5603 29.5605C30.1468 28.974 30.1468 28.026 29.5603 27.4395ZM2.99982 12.75C2.99982 7.374 7.37382 3 12.7498 3C18.1258 3 22.4998 7.374 22.4998 12.75C22.4998 18.126 18.1258 22.5 12.7498 22.5C7.37382 22.5 2.99982 18.126 2.99982 12.75Z" fill="black"/>
</svg>
